<svg width="330px" height="106px" viewBox="0 0 330 106" version="1.1" xmlns="http://www.w3.org/2000/svg" xmlns:xlink="http://www.w3.org/1999/xlink" style=""> <title>logo-neon</title>
  <g id="Neon" stroke="none" stroke-width="1" fill="none" fill-rule="evenodd" stroke-dasharray="1000,1" stroke-linecap="round"> <g id="evan-notfound-copy" transform="translate(2.079999, 2.076758)" fill-rule="nonzero"> <path d="M83.4217551,0.284152222 L83.4200009,1.86276947 L83.4200009,8.70344604 L118.838919,8.70344604 L118.838919,0.284152222 L83.4217551,0.284152222 Z M91.8410489,22.9916904 L115.306323,22.9916904 L115.306323,14.5723965 L91.8410489,14.5723965 L83.4217551,14.5197757 L83.4217551,31.5039478 L83.4200009,33.082565 L83.4200009,39.9232416 L118.838919,39.9232416 L118.838919,31.5039478 L91.8410498,31.5039478 L91.8410489,22.9916904 Z" id="Shape" stroke="#444444" stroke-width="3" fill="#EEEEEE" class="Neon_1"></path> <path d="M134.037383,0.817373657 L133.739199,0.278889771 L123.180001,0.278889771 L124.323622,2.34512512 L137.313891,25.8139078 L142.618046,16.3229077 L134.037383,0.817373657 Z M158.199002,0.278889771 L157.900819,0.817374573 L148.700986,17.4419724 L146.959244,20.5869296 L145.968224,22.3777835 L145.962961,22.3690137 L140.658806,31.8582596 L144.903533,39.9232416 L147.17148,39.9232416 L167.614579,2.34512512 L168.758199,0.278889771 L158.199002,0.278889771 Z" id="Shape" stroke="#444444" stroke-width="3" fill="#EEEEEE" class="Neon_2"></path> <path d="M159.916222,37.5798715 L158.620001,39.9232416 L169.180953,39.9232416 L169.631736,39.1093762 L178.214154,23.6003348 L172.917015,14.0917941 L159.916222,37.5798715 Z M203.208934,37.5798715 L186.419458,7.24585602 L182.971055,1.01733215 L182.579909,0.145584412 L180.557525,0.145584412 L180.152346,1.02084045 L176.705698,7.24585602 L176.28298,8.01060883 L176.265439,8.0421817 L181.562578,17.5507224 L181.716931,17.8296112 L185.589806,24.824642 L193.493418,39.1093781 L193.944201,39.9232434 L204.505153,39.9232434 L203.208934,37.5798715 Z" id="Shape" stroke="#444444" stroke-width="3" fill="#EEEEEE" class="Neon_3"></path> <path d="M210.320001,39.8706207 L218.739295,39.8706207 L218.739295,26.5383179 L210.320001,18.1207773 L210.320001,39.8706207 Z M234.020314,0.215744934 L234.020314,21.6095224 L212.410792,0 L210.321754,0 L210.321754,1.01908539 L210.32,4.8025058 L210.32,9.82075562 L218.739294,18.2382962 L224.503003,24.002005 L234.48162,33.978869 L240.425992,39.9232416 L242.439607,39.9232416 L242.439607,0.215744934 L234.020314,0.215744934 Z" id="Shape" stroke="#444444" stroke-width="3" fill="#EEEEEE" class="Neon_4"></path> <path d="M9.1552738e-07,98.8706207 L8.41929474,98.8706207 L8.41929474,85.5383179 L9.1552738e-07,77.1207773 L9.1552738e-07,98.8706207 Z M23.700314,59.2157449 L23.700314,80.6095224 L2.09079163,59 L0.00175415039,59 L0.00175415039,60.0190854 L0,63.8025058 L0,68.8207556 L8.41929382,77.2382962 L14.1830026,83.002005 L24.1616199,92.978869 L30.1059924,98.9232416 L32.1196069,98.9232416 L32.1196069,59.2157449 L23.700314,59.2157449 Z" id="Shape" stroke="#444444" stroke-width="3" fill="#EEEEEE" class="Neon_5"></path><path d="M57.1909634,59.4214914 C46.3002557,59.4214914 37.4400009,68.2817462 37.4400009,79.1722791 C37.4400009,90.062811 46.3002557,98.9232416 57.1909634,98.9232416 C68.0814954,98.9232416 76.9417502,90.0629868 76.9417502,79.1722791 C76.9417502,68.2815714 68.0814954,59.4214914 57.1909625,59.4214914 L57.1909634,59.4214914 Z M68.6976819,79.17228 C68.6976819,85.5172708 63.5357776,90.6793509 57.1907867,90.6793509 C50.8459717,90.6793509 45.6838925,85.5172717 45.6838925,79.1722809 C45.6838925,72.82729 50.8459717,67.6653857 57.1909625,67.6653857 C63.5357776,67.6653857 68.6976819,72.8274649 68.6976819,79.17228 Z" id="Shape" stroke="#D0312D" stroke-width="2.5" fill-opacity="0.450010927" fill="#DE3E3A" class="Neon_0 svg-elem-6"></path> <path d="M101.479662,98.9232416 L101.479662,73.5794122 L93.0603683,73.5794122 L93.0603683,98.9232416 L101.479662,98.9232416 Z M79.7000009,59.2894138 L79.7000009,67.7087076 L93.0603683,67.7087076 L93.0603683,67.7104617 L101.479662,67.7104617 L101.479662,67.7087076 L115.40307,67.7087076 L115.40307,59.2894138 L79.7000009,59.2894138 Z" id="Shape" stroke="#444444" stroke-width="3" fill="#EEEEEE" class="Neon_6"></path> <path d="M122.400001,75.1510138 L122.400001,81.9916904 L122.401755,81.9916904 L122.401755,98.9232416 L130.821049,98.9232416 L130.821049,81.9916904 L154.28457,81.9916904 L154.28457,73.5723965 L122.401755,73.5723965 L122.400001,75.1510138 Z M157.820674,67.703447 L157.820674,59.2841531 L122.401755,59.2841531 L122.401755,67.703447 L157.820674,67.703447 Z" id="Shape" stroke="#444444" stroke-width="3" fill="#EEEEEE" class="Neon_7"></path> <path d="M181.250963,59.4214914 C170.360256,59.4214914 161.500001,68.2817462 161.500001,79.1722791 C161.500001,90.062811 170.360256,98.9232416 181.250963,98.9232416 C192.141495,98.9232416 201.00175,90.0629868 201.00175,79.1722791 C201.00175,68.2815714 192.141495,59.4214914 181.250963,59.4214914 L181.250963,59.4214914 Z M192.757682,79.17228 C192.757682,85.5172708 187.595778,90.6793509 181.250787,90.6793509 C174.905972,90.6793509 169.743893,85.5172717 169.743893,79.1722809 C169.743893,72.82729 174.905972,67.6653857 181.250963,67.6653857 C187.595778,67.6653857 192.757682,72.8274649 192.757682,79.17228 Z" id="Shape" stroke="#444444" stroke-width="3" fill="#EEEEEE" class="Neon_8"></path> <path d="M235.30799,59.2701199 L235.30799,80.9954071 C235.30799,86.090834 231.235157,90.354856 226.23094,90.5021936 C226.118682,90.5057019 226.006425,90.5074561 225.892413,90.5074561 C225.774893,90.5074561 225.65562,90.5057019 225.538101,90.5021936 C220.532128,90.3478403 216.459295,86.0820651 216.459295,80.9936539 L216.459295,59.2701199 L208.040001,59.2701199 L208.040001,84.0386319 C208.040001,87.2397174 209.208178,90.2636475 211.328788,92.5561517 C212.121604,93.4138672 212.99686,94.2066837 213.928244,94.9100458 C217.394187,97.535813 221.53192,98.9232425 225.892412,98.9232425 C230.244135,98.9232425 234.374852,97.5393213 237.839041,94.9223239 C238.763409,94.2242242 239.633403,93.4401776 240.422712,92.591232 C242.553846,90.3004828 243.727286,87.2695361 243.727286,84.0561725 L243.727286,59.2701199 L235.30799,59.2701199 Z" id="Path" stroke="#444444" stroke-width="3" fill="#EEEEEE" class="Neon_9"></path> <path d="M250.740001,98.8706207 L259.159295,98.8706207 L259.159295,85.5383179 L250.740001,77.1207773 L250.740001,98.8706207 Z M274.440314,59.2157449 L274.440314,80.6095224 L252.830792,59 L250.741754,59 L250.741754,60.0190854 L250.74,63.8025058 L250.74,68.8207556 L259.159294,77.2382962 L264.923003,83.002005 L274.90162,92.978869 L280.845992,98.9232416 L282.859607,98.9232416 L282.859607,59.2157449 L274.440314,59.2157449 Z" id="Shape" stroke="#444444" stroke-width="3" fill="#EEEEEE" class="Neon_10"></path> <path d="M325.653574,76.3718118 C324.99757,71.7131354 322.685773,67.4175406 319.142653,64.2813541 C315.892455,61.4012543 311.791557,59.6752994 307.481931,59.3472971 L289.840001,59.2823981 L289.840001,67.7209866 L306.503187,67.7209866 C307.096046,67.7490512 307.680135,67.8209659 308.253699,67.9367307 C309.92528,68.2770102 311.498636,68.9856339 312.875541,70.0310297 C315.118932,71.730675 316.657208,74.1740244 317.20797,76.9067865 C317.357061,77.6469821 317.432484,78.4099808 317.432484,79.1747327 C317.432484,79.9657959 317.350046,80.7603665 317.188676,81.5356433 C316.211686,86.1873032 312.417742,89.7795349 307.731002,90.5039459 L298.259296,90.5039459 L298.259296,73.5899344 L289.840001,73.5899344 L289.840001,98.9232397 L308.29755,98.9232397 L308.392267,98.9109616 C317.250067,97.835748 324.341567,90.9178943 325.639542,82.0881595 C325.779863,81.1339731 325.851777,80.1534763 325.851777,79.1747336 C325.851777,78.2310712 325.785124,77.2874088 325.653573,76.3718109 L325.653574,76.3718118 Z" id="Path" stroke="#444444" stroke-width="3" fill="#EEEEEE" class="Neon_11"></path> </g> </g><style data-made-with="vivus-instant">.Neon_0{stroke-dasharray:257 259; stroke-dashoffset:258; fill-opacity: 0; animation:Neon_draw 1333ms cubic-bezier(0.11, 0, 0.5, 0) 0ms forwards, fill_o_color 900ms cubic-bezier(0.11, 0, 0.5, 0) 680ms forwards;}.Neon_1{stroke-dasharray:173 175; stroke-dashoffset:174; fill-opacity: 0; animation:Neon_draw 1333ms cubic-bezier(0.11, 0, 0.5, 0) 60ms forwards,fill_color 900ms cubic-bezier(0.11, 0, 0.5, 0) 600ms forwards;}.Neon_2{stroke-dasharray:174 176; stroke-dashoffset:175; fill-opacity: 0; animation:Neon_draw 1333ms cubic-bezier(0.11, 0, 0.5, 0) 121ms forwards, fill_color 900ms cubic-bezier(0.11, 0, 0.5, 0) 680ms forwards;}.Neon_3{stroke-dasharray:212 214; stroke-dashoffset:213; fill-opacity: 0; animation:Neon_draw 1333ms cubic-bezier(0.11, 0, 0.5, 0) 181ms forwards,fill_color 900ms cubic-bezier(0.11, 0, 0.5, 0) 760ms forwards;}.Neon_4{stroke-dasharray:212 214; stroke-dashoffset:213; fill-opacity: 0; animation:Neon_draw 1333ms cubic-bezier(0.11, 0, 0.5, 0) 242ms forwards,fill_color 900ms cubic-bezier(0.11, 0, 0.5, 0) 840ms forwards;}.Neon_5{stroke-dasharray:197 199; stroke-dashoffset:198; fill-opacity: 0; animation:Neon_draw 1200ms cubic-bezier(0.11, 0, 0.5, 0) 80ms forwards,fill_color 900ms cubic-bezier(0.11, 0, 0.5, 0) 600ms forwards;}.Neon_6{stroke-dasharray:156 158; stroke-dashoffset:157; fill-opacity: 0; animation:Neon_draw 1333ms cubic-bezier(0.11, 0, 0.5, 0) 120ms forwards,fill_color 900ms cubic-bezier(0.11, 0, 0.5, 0) 740ms forwards;}.Neon_7{stroke-dasharray:203 205; stroke-dashoffset:204; fill-opacity: 0; animation:Neon_draw 1333ms cubic-bezier(0.11, 0, 0.5, 0) 160ms forwards,fill_color 900ms cubic-bezier(0.11, 0, 0.5, 0) 820ms forwards;}.Neon_8{stroke-dasharray:197 199; stroke-dashoffset:198; fill-opacity: 0; animation:Neon_draw 1333ms cubic-bezier(0.11, 0, 0.5, 0) 200ms forwards,fill_color 900ms cubic-bezier(0.11, 0, 0.5, 0) 900ms forwards;}.Neon_9{stroke-dasharray:191 193; stroke-dashoffset:192; fill-opacity: 0; animation:Neon_draw 1333ms cubic-bezier(0.11, 0, 0.5, 0) 240ms forwards,fill_color 900ms cubic-bezier(0.11, 0, 0.5, 0) 960ms forwards;}.Neon_10{stroke-dasharray:212 214; stroke-dashoffset:213; fill-opacity: 0; animation:Neon_draw 1333ms cubic-bezier(0.11, 0, 0.5, 0) 280ms forwards,fill_color 900ms cubic-bezier(0.11, 0, 0.5, 0) 1020ms forwards;}.Neon_11{stroke-dasharray:214 216; stroke-dashoffset:215; fill-opacity: 0; animation:Neon_draw 1333ms cubic-bezier(0.11, 0, 0.5, 0) 320ms forwards,fill_color 900ms cubic-bezier(0.11, 0, 0.5, 0) 1080ms forwards;}@keyframes Neon_draw{100%{stroke-dashoffset:0;}}@keyframes Neon_fade{0%{stroke-opacity:1;}93.54838709677419%{stroke-opacity:1;}100%{stroke-opacity:0;}}@keyframes fill_color{from{fill-opacity: 0;}to{fill-opacity: 1;}}@keyframes fill_o_color{0%{fill-opacity: 0;}40%{fill-opacity: 0.4;}100%{fill-opacity: 0.5;}}</style></svg>