<!--?xml version="1.0" encoding="UTF-8"?-->
<svg width="100%" height="100%" viewBox="0 0 939 256" version="1.1" xmlns="http://www.w3.org/2000/svg" xmlns:xlink="http://www.w3.org/1999/xlink">
<style>/***************************************************
 * Generated by SVG Artista on 2/10/2024, 1:12:13 PM
 * MIT license (https://opensource.org/licenses/MIT)
 * W. https://svgartista.net
 **************************************************/

@-webkit-keyframes animate-svg-stroke-1{0%{stroke-dashoffset:385.3036193847656px;stroke-dasharray:385.3036193847656px}100%{stroke-dashoffset:0;stroke-dasharray:385.3036193847656px}}@keyframes animate-svg-stroke-1{0%{stroke-dashoffset:385.3036193847656px;stroke-dasharray:385.3036193847656px}100%{stroke-dashoffset:0;stroke-dasharray:385.3036193847656px}}@-webkit-keyframes animate-svg-fill-1{0%{fill:transparent}100%{fill:rgb(0,0,0)}}@keyframes animate-svg-fill-1{0%{fill:transparent}100%{fill:rgb(0,0,0)}}.svg-elem-1{-webkit-animation:animate-svg-stroke-1 1s cubic-bezier(0.47,0,0.745,0.715) 0s both,animate-svg-fill-1 0.7s cubic-bezier(0.47,0,0.745,0.715) 0.8s both;animation:animate-svg-stroke-1 1s cubic-bezier(0.47,0,0.745,0.715) 0s both,animate-svg-fill-1 0.7s cubic-bezier(0.47,0,0.745,0.715) 0.8s both}@-webkit-keyframes animate-svg-stroke-2{0%{stroke-dashoffset:411.9811096191406px;stroke-dasharray:411.9811096191406px}100%{stroke-dashoffset:0;stroke-dasharray:411.9811096191406px}}@keyframes animate-svg-stroke-2{0%{stroke-dashoffset:411.9811096191406px;stroke-dasharray:411.9811096191406px}100%{stroke-dashoffset:0;stroke-dasharray:411.9811096191406px}}@-webkit-keyframes animate-svg-fill-2{0%{fill:transparent}100%{fill:rgb(41,52,98)}}@keyframes animate-svg-fill-2{0%{fill:transparent}100%{fill:rgb(41,52,98)}}.svg-elem-2{-webkit-animation:animate-svg-stroke-2 1s cubic-bezier(0.47,0,0.745,0.715) 0.12s both,animate-svg-fill-2 0.7s cubic-bezier(0.47,0,0.745,0.715) 0.9s both;animation:animate-svg-stroke-2 1s cubic-bezier(0.47,0,0.745,0.715) 0.12s both,animate-svg-fill-2 0.7s cubic-bezier(0.47,0,0.745,0.715) 0.9s both}@-webkit-keyframes animate-svg-stroke-3{0%{stroke-dashoffset:289.0438232421875px;stroke-dasharray:289.0438232421875px}100%{stroke-dashoffset:0;stroke-dasharray:289.0438232421875px}}@keyframes animate-svg-stroke-3{0%{stroke-dashoffset:289.0438232421875px;stroke-dasharray:289.0438232421875px}100%{stroke-dashoffset:0;stroke-dasharray:289.0438232421875px}}@-webkit-keyframes animate-svg-fill-3{0%{fill:transparent}100%{fill:rgb(41,52,98)}}@keyframes animate-svg-fill-3{0%{fill:transparent}100%{fill:rgb(41,52,98)}}.svg-elem-3{-webkit-animation:animate-svg-stroke-3 1s cubic-bezier(0.47,0,0.745,0.715) 0.24s both,animate-svg-fill-3 0.7s cubic-bezier(0.47,0,0.745,0.715) 1s both;animation:animate-svg-stroke-3 1s cubic-bezier(0.47,0,0.745,0.715) 0.24s both,animate-svg-fill-3 0.7s cubic-bezier(0.47,0,0.745,0.715) 1s both}@-webkit-keyframes animate-svg-stroke-4{0%{stroke-dashoffset:434.1485595703125px;stroke-dasharray:434.1485595703125px}100%{stroke-dashoffset:0;stroke-dasharray:434.1485595703125px}}@keyframes animate-svg-stroke-4{0%{stroke-dashoffset:434.1485595703125px;stroke-dasharray:434.1485595703125px}100%{stroke-dashoffset:0;stroke-dasharray:434.1485595703125px}}@-webkit-keyframes animate-svg-fill-4{0%{fill:transparent}100%{fill:rgb(41,52,98)}}@keyframes animate-svg-fill-4{0%{fill:transparent}100%{fill:rgb(41,52,98)}}.svg-elem-4{-webkit-animation:animate-svg-stroke-4 1s cubic-bezier(0.47,0,0.745,0.715) 0.36s both,animate-svg-fill-4 0.7s cubic-bezier(0.47,0,0.745,0.715) 1.1s both;animation:animate-svg-stroke-4 1s cubic-bezier(0.47,0,0.745,0.715) 0.36s both,animate-svg-fill-4 0.7s cubic-bezier(0.47,0,0.745,0.715) 1.1s both}@-webkit-keyframes animate-svg-stroke-5{0%{stroke-dashoffset:354.1093444824219px;stroke-dasharray:354.1093444824219px}100%{stroke-dashoffset:0;stroke-dasharray:354.1093444824219px}}@keyframes animate-svg-stroke-5{0%{stroke-dashoffset:354.1093444824219px;stroke-dasharray:354.1093444824219px}100%{stroke-dashoffset:0;stroke-dasharray:354.1093444824219px}}@-webkit-keyframes animate-svg-fill-5{0%{fill:transparent}100%{fill:rgb(41,52,98)}}@keyframes animate-svg-fill-5{0%{fill:transparent}100%{fill:rgb(41,52,98)}}.svg-elem-5{-webkit-animation:animate-svg-stroke-5 1s cubic-bezier(0.47,0,0.745,0.715) 0.48s both,animate-svg-fill-5 0.7s cubic-bezier(0.47,0,0.745,0.715) 1.2000000000000002s both;animation:animate-svg-stroke-5 1s cubic-bezier(0.47,0,0.745,0.715) 0.48s both,animate-svg-fill-5 0.7s cubic-bezier(0.47,0,0.745,0.715) 1.2000000000000002s both}@-webkit-keyframes animate-svg-stroke-6{0%{stroke-dashoffset:354.109375px;stroke-dasharray:354.109375px}100%{stroke-dashoffset:0;stroke-dasharray:354.109375px}}@keyframes animate-svg-stroke-6{0%{stroke-dashoffset:354.109375px;stroke-dasharray:354.109375px}100%{stroke-dashoffset:0;stroke-dasharray:354.109375px}}@-webkit-keyframes animate-svg-fill-6{0%{fill:transparent}100%{fill:rgb(41,52,98)}}@keyframes animate-svg-fill-6{0%{fill:transparent}100%{fill:rgb(41,52,98)}}.svg-elem-6{-webkit-animation:animate-svg-stroke-6 1s cubic-bezier(0.47,0,0.745,0.715) 0.6s both,animate-svg-fill-6 0.7s cubic-bezier(0.47,0,0.745,0.715) 1.3s both;animation:animate-svg-stroke-6 1s cubic-bezier(0.47,0,0.745,0.715) 0.6s both,animate-svg-fill-6 0.7s cubic-bezier(0.47,0,0.745,0.715) 1.3s both}@-webkit-keyframes animate-svg-stroke-7{0%{stroke-dashoffset:385.3036804199219px;stroke-dasharray:385.3036804199219px}100%{stroke-dashoffset:0;stroke-dasharray:385.3036804199219px}}@keyframes animate-svg-stroke-7{0%{stroke-dashoffset:385.3036804199219px;stroke-dasharray:385.3036804199219px}100%{stroke-dashoffset:0;stroke-dasharray:385.3036804199219px}}@-webkit-keyframes animate-svg-fill-7{0%{fill:transparent}100%{fill:rgb(216,88,85)}}@keyframes animate-svg-fill-7{0%{fill:transparent}100%{fill:rgb(216,88,85)}}.svg-elem-7{-webkit-animation:animate-svg-stroke-7 1s cubic-bezier(0.47,0,0.745,0.715) 0.72s both,animate-svg-fill-7 0.7s cubic-bezier(0.47,0,0.745,0.715) 1.4000000000000001s both;animation:animate-svg-stroke-7 1s cubic-bezier(0.47,0,0.745,0.715) 0.72s both,animate-svg-fill-7 0.7s cubic-bezier(0.47,0,0.745,0.715) 1.4000000000000001s both}@-webkit-keyframes animate-svg-stroke-8{0%{stroke-dashoffset:461.1065368652344px;stroke-dasharray:461.1065368652344px}100%{stroke-dashoffset:0;stroke-dasharray:461.1065368652344px}}@keyframes animate-svg-stroke-8{0%{stroke-dashoffset:461.1065368652344px;stroke-dasharray:461.1065368652344px}100%{stroke-dashoffset:0;stroke-dasharray:461.1065368652344px}}@-webkit-keyframes animate-svg-fill-8{0%{fill:transparent}100%{fill:rgb(41,52,98)}}@keyframes animate-svg-fill-8{0%{fill:transparent}100%{fill:rgb(41,52,98)}}.svg-elem-8{-webkit-animation:animate-svg-stroke-8 1s cubic-bezier(0.47,0,0.745,0.715) 0.84s both,animate-svg-fill-8 0.7s cubic-bezier(0.47,0,0.745,0.715) 1.5s both;animation:animate-svg-stroke-8 1s cubic-bezier(0.47,0,0.745,0.715) 0.84s both,animate-svg-fill-8 0.7s cubic-bezier(0.47,0,0.745,0.715) 1.5s both}@-webkit-keyframes animate-svg-stroke-9{0%{stroke-dashoffset:385.3035583496094px;stroke-dasharray:385.3035583496094px}100%{stroke-dashoffset:0;stroke-dasharray:385.3035583496094px}}@keyframes animate-svg-stroke-9{0%{stroke-dashoffset:385.3035583496094px;stroke-dasharray:385.3035583496094px}100%{stroke-dashoffset:0;stroke-dasharray:385.3035583496094px}}@-webkit-keyframes animate-svg-fill-9{0%{fill:transparent}100%{fill:rgb(41,52,98)}}@keyframes animate-svg-fill-9{0%{fill:transparent}100%{fill:rgb(41,52,98)}}.svg-elem-9{-webkit-animation:animate-svg-stroke-9 1s cubic-bezier(0.47,0,0.745,0.715) 0.96s both,animate-svg-fill-9 0.7s cubic-bezier(0.47,0,0.745,0.715) 1.6s both;animation:animate-svg-stroke-9 1s cubic-bezier(0.47,0,0.745,0.715) 0.96s both,animate-svg-fill-9 0.7s cubic-bezier(0.47,0,0.745,0.715) 1.6s both}@-webkit-keyframes animate-svg-stroke-10{0%{stroke-dashoffset:322.40411376953125px;stroke-dasharray:322.40411376953125px}100%{stroke-dashoffset:0;stroke-dasharray:322.40411376953125px}}@keyframes animate-svg-stroke-10{0%{stroke-dashoffset:322.40411376953125px;stroke-dasharray:322.40411376953125px}100%{stroke-dashoffset:0;stroke-dasharray:322.40411376953125px}}@-webkit-keyframes animate-svg-fill-10{0%{fill:transparent}100%{fill:rgb(41,52,98)}}@keyframes animate-svg-fill-10{0%{fill:transparent}100%{fill:rgb(41,52,98)}}.svg-elem-10{-webkit-animation:animate-svg-stroke-10 1s cubic-bezier(0.47,0,0.745,0.715) 1.08s both,animate-svg-fill-10 0.7s cubic-bezier(0.47,0,0.745,0.715) 1.7000000000000002s both;animation:animate-svg-stroke-10 1s cubic-bezier(0.47,0,0.745,0.715) 1.08s both,animate-svg-fill-10 0.7s cubic-bezier(0.47,0,0.745,0.715) 1.7000000000000002s both}@-webkit-keyframes animate-svg-stroke-11{0%{stroke-dashoffset:354.1094665527344px;stroke-dasharray:354.1094665527344px}100%{stroke-dashoffset:0;stroke-dasharray:354.1094665527344px}}@keyframes animate-svg-stroke-11{0%{stroke-dashoffset:354.1094665527344px;stroke-dasharray:354.1094665527344px}100%{stroke-dashoffset:0;stroke-dasharray:354.1094665527344px}}@-webkit-keyframes animate-svg-fill-11{0%{fill:transparent}100%{fill:rgb(41,52,98)}}@keyframes animate-svg-fill-11{0%{fill:transparent}100%{fill:rgb(41,52,98)}}.svg-elem-11{-webkit-animation:animate-svg-stroke-11 1s cubic-bezier(0.47,0,0.745,0.715) 1.2s both,animate-svg-fill-11 0.7s cubic-bezier(0.47,0,0.745,0.715) 1.8s both;animation:animate-svg-stroke-11 1s cubic-bezier(0.47,0,0.745,0.715) 1.2s both,animate-svg-fill-11 0.7s cubic-bezier(0.47,0,0.745,0.715) 1.8s both}@-webkit-keyframes animate-svg-stroke-12{0%{stroke-dashoffset:492.760986328125px;stroke-dasharray:492.760986328125px}100%{stroke-dashoffset:0;stroke-dasharray:492.760986328125px}}@keyframes animate-svg-stroke-12{0%{stroke-dashoffset:492.760986328125px;stroke-dasharray:492.760986328125px}100%{stroke-dashoffset:0;stroke-dasharray:492.760986328125px}}@-webkit-keyframes animate-svg-fill-12{0%{fill:transparent}100%{fill:rgb(41,52,98)}}@keyframes animate-svg-fill-12{0%{fill:transparent}100%{fill:rgb(41,52,98)}}.svg-elem-12{-webkit-animation:animate-svg-stroke-12 1s cubic-bezier(0.47,0,0.745,0.715) 1.3199999999999998s both,animate-svg-fill-12 0.7s cubic-bezier(0.47,0,0.745,0.715) 1.9000000000000001s both;animation:animate-svg-stroke-12 1s cubic-bezier(0.47,0,0.745,0.715) 1.3199999999999998s both,animate-svg-fill-12 0.7s cubic-bezier(0.47,0,0.745,0.715) 1.9000000000000001s both}</style>
    <title>banner-padding@1x</title>
    <defs>
        <path d="M365.957227,87.0864258 C370.849479,87.0864258 375.287142,85.9066569 379.270215,83.5471191 C383.253288,81.1875814 386.41377,78.0054525 388.75166,74.0007324 C391.089551,69.9960124 392.258496,65.4825846 392.258496,60.4604492 C392.258496,55.4383138 391.100374,50.9140625 388.784131,46.8876953 C386.467887,42.8613281 383.318229,39.6791992 379.335156,37.3413086 C375.352083,35.003418 370.892773,33.8344727 365.957227,33.8344727 C361.02168,33.8344727 356.56237,35.003418 352.579297,37.3413086 C348.596224,39.6791992 345.435742,42.8613281 343.097852,46.8876953 C340.759961,50.9140625 339.591016,55.4383138 339.591016,60.4604492 C339.591016,65.3959961 340.749137,69.8769531 343.065381,73.9033203 C345.381624,77.9296875 348.531283,81.1334635 352.514355,83.5146484 C356.497428,85.8958333 360.978385,87.0864258 365.957227,87.0864258 Z M365.957227,95.0742188 C359.722852,95.0742188 354.008008,93.4939779 348.812695,90.3334961 C343.617383,87.1730143 339.461133,82.9626465 336.343945,77.7023926 C333.226758,72.4421387 331.668164,66.6948242 331.668164,60.4604492 C331.668164,54.1827799 333.215934,48.4246419 336.311475,43.1860352 C339.407015,37.9474284 343.552441,33.7478841 348.747754,30.5874023 C353.943066,27.4269206 359.679557,25.8466797 365.957227,25.8466797 C372.191602,25.8466797 377.906445,27.416097 383.101758,30.5549316 C388.29707,33.6937663 392.45332,37.8933105 395.570508,43.1535645 C398.687695,48.4138184 400.246289,54.1827799 400.246289,60.4604492 C400.246289,65.1795247 399.347933,69.6496582 397.551221,73.8708496 C395.754508,78.092041 393.308382,81.772054 390.212842,84.9108887 C387.117301,88.0497233 383.469759,90.5283203 379.270215,92.3466797 C375.070671,94.1650391 370.633008,95.0742188 365.957227,95.0742188 Z" id="path-1" class="svg-elem-1"></path>
        <filter x="-30.6%" y="-30.3%" width="161.2%" height="160.7%" filterUnits="objectBoundingBox" id="filter-2">
            <feOffset dx="0" dy="0" in="SourceAlpha" result="shadowOffsetOuter1"></feOffset>
            <feGaussianBlur stdDeviation="7" in="shadowOffsetOuter1" result="shadowBlurOuter1"></feGaussianBlur>
            <feComposite in="shadowBlurOuter1" in2="SourceAlpha" operator="out" result="shadowBlurOuter1"></feComposite>
            <feColorMatrix values="0 0 0 0 0.922639266   0 0 0 0 0.369477645   0 0 0 0 0.369477645  0 0 0 0.5 0" type="matrix" in="shadowBlurOuter1"></feColorMatrix>
        </filter>
    </defs>
    <g id="banner-padding" stroke="none" stroke-width="1" fill="none" fill-rule="evenodd">
        <g id="evannotfound" transform="translate(104.9561, 79.6839)" fill-rule="nonzero">
            <path d="M34.2890625,25.6972656 C38.0661057,25.6972656 41.7883176,26.3118219 45.4555961,27.541568 C49.1253876,28.7721568 52.5868069,30.6615323 55.8389282,33.2114362 L60.0371264,36.6980754 L24.7141171,85.1132826 C27.2608074,86.3346577 30.4757351,86.9370117 34.3540039,86.9370117 C35.3723946,86.9370117 36.390784,86.8733473 37.4095534,86.7460013 C44.2525633,85.8959379 50.0083448,82.5971356 54.6752026,76.8698578 L57.4540537,73.2866024 L64.3899741,78.8353387 C57.2704198,88.8647943 48.6571396,94.4616653 38.5722713,95.661178 C37.1665002,95.8368994 35.7387658,95.9248047 34.2890625,95.9248047 C30.5106985,95.9248047 26.7981747,95.2990151 23.1515842,94.0468726 C19.5056283,92.794948 16.0788346,90.8958638 12.8658787,88.3430235 C5.27003321,82.1082832 0.904937297,74.3353847 -0.236373313,65.0293025 C-0.412134454,63.6232134 -0.5,62.2171237 -0.5,60.8110352 C-0.5,56.990375 0.114658956,53.2465324 1.34430236,49.5795602 C2.57338613,45.9142568 4.43817183,42.4350419 6.94029781,39.1427709 C13.2300789,31.4449958 20.9818886,27.0373245 30.2012596,25.8958785 C31.5278206,25.7630835 32.8865244,25.6972656 34.2890625,25.6972656 Z M34.3540039,34.6850586 C33.333276,34.6850586 32.2700285,34.748997 31.1642456,34.8765873 C24.4136289,35.6832689 18.6836696,38.9575656 13.9693313,44.6858124 C12.1423704,47.0648616 10.7723078,49.6450635 9.85909515,52.4271766 C8.94513691,55.211561 8.48779297,58.0277893 8.48779297,60.8759766 C8.48779297,61.8943672 8.55145737,62.9127567 8.67875613,63.9311467 C9.42364214,70.3452817 12.2427637,75.7880174 17.1321624,80.2656359 L47.7422078,38.3279645 C46.4474856,37.4668188 44.6277324,36.6698701 42.2880871,35.9280313 C39.6752565,35.0995729 37.0305911,34.6850586 34.3540039,34.6850586 Z" id="Shape" stroke="#536983" fill="#293462" class="svg-elem-2"></path>
            <path d="M72.4584969,28.459014 L95.579369,80.9132917 L118.761744,28.5288086 L128.557541,28.5288086 L99.0211033,95.2495117 L92.0707053,95.2495117 L62.6047323,28.6049957 L72.4584969,28.459014 Z" id="Path" stroke="#536983" fill="#293462" class="svg-elem-3"></path>
            <path d="M158.738457,25.3466797 C163.128714,25.3466797 167.233323,26.0393159 171.052721,27.4222011 C174.865293,28.802615 178.041293,30.3712264 180.58287,32.1240381 C182.396649,33.37492 183.755446,34.5328922 184.669609,35.5899914 L184.669609,28.59375 L193.592461,28.59375 L193.592461,95.2495117 L184.669609,95.2495117 L184.669609,85.2983607 C183.755967,86.3336351 182.397055,87.4807569 180.58287,88.7319189 C178.041933,90.4842898 174.866705,92.0633887 171.055103,93.4653573 C167.234967,94.8704649 163.129566,95.5742188 158.738457,95.5742188 C152.409402,95.5742188 146.608123,93.9690495 141.334065,90.7606641 C136.06802,87.5571532 131.855126,83.3004824 128.695492,77.9905428 C125.532167,72.6743991 123.949395,66.8312413 123.949395,60.4604492 C123.949395,54.0901374 125.531932,48.2363918 128.69503,42.8986633 C131.855085,37.5660711 136.068643,33.3089533 141.335368,30.1269739 C146.609031,26.9408023 152.409866,25.3466797 158.738457,25.3466797 Z M158.738457,34.3344727 C153.854523,34.3344727 149.46854,35.4783247 145.582183,37.7719123 C141.695345,40.0657841 138.605312,43.188269 136.311477,47.1387631 C134.016832,51.0906508 132.872246,55.5317241 132.872246,60.4604492 C132.872246,65.3885401 134.016521,69.818488 136.310887,73.7486518 C138.605149,77.6786372 141.706614,80.8014255 145.615364,83.1169354 C149.522564,85.4315262 153.89738,86.5864258 158.738457,86.5864258 C163.578888,86.5864258 167.942575,85.4318459 171.82805,83.1175464 C175.715586,80.8020198 178.806241,77.6684105 181.100496,73.717194 C183.394933,69.7656643 184.539727,65.3462985 184.539727,60.4604492 C184.539727,55.573962 183.405449,51.1540096 181.131959,47.2019598 C178.859473,43.2516573 175.769393,40.1189356 171.86155,37.803963 C167.954351,35.4893723 163.579534,34.3344727 158.738457,34.3344727 Z" id="Shape" stroke="#536983" fill="#293462" class="svg-elem-4"></path>
            <path d="M229.586445,25.3466797 C233.513929,25.3466797 237.331448,26.2391139 241.038458,28.0264223 C244.738685,29.8104603 248.022119,32.4626217 250.889879,35.9922461 C255.845302,42.2632675 258.569991,49.9801905 259.050313,59.1485026 L259.050313,95.2495117 L250.06252,95.2495117 L250.06252,60.4604492 C250.06252,56.7505654 249.519901,53.2749751 248.432485,50.0340492 C247.34814,46.8022759 245.83982,43.9736817 243.904905,41.5497223 C241.984307,39.1436982 239.769632,37.3265608 237.257763,36.1022888 C234.753866,34.881902 232.218728,34.2695312 229.651387,34.2695312 C227.041406,34.2695312 224.484559,34.8816127 221.980069,36.1022888 C219.466304,37.3274854 217.218585,39.1674923 215.235547,41.6146234 C211.703638,46.0401482 209.688659,51.5946269 209.175312,58.2715777 L209.175312,95.2495117 L200.252461,95.2495117 L200.252461,28.59375 L209.175313,28.59375 L209.175312,34.9371782 C211.823965,31.9313558 214.811092,29.628747 218.134432,28.0264223 C221.841442,26.2391139 225.658961,25.3466797 229.586445,25.3466797 Z" id="Path" stroke="#536983" fill="#293462" class="svg-elem-5"></path>
            <path d="M295.044297,25.3466797 C298.971781,25.3466797 302.7893,26.2391139 306.49631,28.0264223 C310.196537,29.8104603 313.47997,32.4626217 316.347731,35.9922461 C321.303153,42.2632675 324.027842,49.9801905 324.508164,59.1485026 L324.508164,95.2495117 L315.520371,95.2495117 L315.520371,60.4604492 C315.520371,56.7505654 314.977752,53.2749751 313.890336,50.0340492 C312.805991,46.8022759 311.297672,43.9736817 309.362757,41.5497223 C307.442159,39.1436982 305.227483,37.3265608 302.715615,36.1022888 C300.211718,34.881902 297.676579,34.2695312 295.109238,34.2695312 C292.499258,34.2695312 289.942411,34.8816127 287.43792,36.1022888 C284.924155,37.3274854 282.676436,39.1674923 280.693398,41.6146234 C277.161489,46.0401482 275.14651,51.5946269 274.633164,58.2715777 L274.633164,95.2495117 L265.710313,95.2495117 L265.710313,28.59375 L274.633164,28.59375 L274.633164,34.9371782 C277.281816,31.9313558 280.268944,29.628747 283.592284,28.0264223 C287.299294,26.2391139 291.116813,25.3466797 295.044297,25.3466797 Z" id="Path" stroke="#536983" fill="#293462" class="svg-elem-6"></path>
            <g id="Shape">
                <use fill="black" fill-opacity="1" filter="url(#filter-2)" xlink:href="#path-1"></use>
                <path stroke="#D85855" stroke-width="1" d="M365.957227,26.3466797 C372.097385,26.3466797 377.726238,27.8913918 382.8432,30.9828894 C387.9671,34.0785792 392.066042,38.22055 395.140362,43.4084656 C398.211639,48.5912449 399.746289,54.2754225 399.746289,60.4604492 C399.746289,65.1105353 398.861638,69.5154764 397.091161,73.6750295 C395.319801,77.8366594 392.908767,81.4651899 389.856842,84.559799 C386.805887,87.6534243 383.210516,90.0957122 379.071544,91.8878444 C374.93467,93.6790682 370.563166,94.5742188 365.957227,94.5742188 C359.817531,94.5742188 354.189123,93.0189063 349.072556,89.9063281 C343.948134,86.7889717 339.848729,82.6359436 336.774091,77.4474914 C333.702987,72.2650039 332.168164,66.6025221 332.168164,60.4604492 C332.168164,54.275434 333.691979,48.6018684 336.741938,43.4403998 C339.795016,38.2736528 343.883565,34.1317004 349.007614,31.0145703 C354.124478,27.9018114 359.774586,26.3466797 365.957227,26.3466797 Z M365.957227,33.3344727 C360.927844,33.3344727 356.384626,34.527979 352.326197,36.9101007 C348.267905,39.2921415 345.047522,42.5341816 342.665457,46.6366276 C340.28432,50.7374742 339.091016,55.3449035 339.091016,60.4604492 C339.091016,65.4879319 340.272776,70.0515998 342.631978,74.1526434 C344.991567,78.2543585 348.200188,81.5180634 352.257794,83.9438059 C356.316885,86.3704365 360.882852,87.5864258 365.957227,87.5864258 C370.943515,87.5864258 375.465735,86.3820069 379.525052,83.9773029 C383.582447,81.5737372 386.801945,78.3322677 389.183465,74.252813 C391.56488,70.1735368 392.758496,65.5766292 392.758496,60.4604492 C392.758496,55.3455454 391.576325,50.7387013 389.217534,46.6383722 C386.857117,42.5352185 383.64726,39.2925591 379.588257,36.9101007 C375.529827,34.527979 370.986609,33.3344727 365.957227,33.3344727 Z" stroke-linejoin="square" fill="#D85855" fill-rule="evenodd" class="svg-elem-7"></path>
            </g>
            <path d="M450.96082,2.22753906 C452.687898,2.22753906 454.459419,2.42682463 456.275292,2.82626665 L460.589747,3.99628848 L458.472328,12.611994 C456.477119,12.1533232 455.313019,11.8757979 454.97971,11.7805667 C454.335895,11.5664591 453.796096,11.4202308 453.339151,11.3371498 C452.884778,11.2545365 452.265019,11.215332 451.480352,11.215332 C449.15719,11.215332 447.467451,11.7206032 445.98099,12.7528265 C444.739907,13.5935605 443.902305,14.7959316 443.459357,16.3533568 C443.337746,16.9703079 443.278203,17.6887172 443.278203,18.5083008 L443.278203,27.6196289 L453.27918,27.6196289 L453.27918,36.6074219 L443.278253,36.6074219 L443.278347,37.5405679 L443.279105,39.6103823 C443.282111,45.2256171 443.292631,49.7286266 443.310667,53.1194108 C443.329613,56.681249 443.340269,59.4307798 443.342637,61.3682891 L443.343141,62.142815 C443.386435,63.9632109 443.408086,65.8269015 443.408086,67.7338867 L443.408086,95.2495117 L434.485234,95.2495117 L434.485234,67.7338867 C434.485234,65.8309957 434.463591,63.9713977 434.420298,62.1550928 L434.419392,61.0871959 C434.416386,59.169471 434.405864,56.5153156 434.387829,53.1247298 C434.369787,49.7327449 434.359261,45.2281409 434.356254,39.6107787 L434.35548,36.6074219 L419.98064,36.6074219 L420.110523,95.2495117 L411.186562,95.2495117 L411.186562,67.6689453 C411.186562,65.7660283 411.164919,63.9280576 411.121621,62.1550335 L411.121333,52.2871164 C411.118705,48.3881302 411.098136,43.1615654 411.059628,36.6074219 L400.406289,36.6074219 L400.406289,27.6196289 L411.05668,27.6196289 L411.05668,14.046875 L419.979531,14.046875 L419.979531,27.6196289 L434.355352,27.6196289 L434.355352,17.9887695 C434.355352,16.6458608 434.51261,15.3701992 434.827692,14.155065 C435.855665,10.4007283 437.869594,7.4532578 440.871665,5.30264336 C443.856095,3.25363163 447.218813,2.22753906 450.96082,2.22753906 Z" id="Combined-Shape" stroke="#536983" fill="#293462" class="svg-elem-8"></path>
            <path d="M486.936738,25.3466797 C493.26533,25.3466797 499.066164,26.9408023 504.339827,30.1269739 C509.606552,33.3089533 513.820111,37.5660711 516.980165,42.8986633 C520.143264,48.2363918 521.725801,54.0901374 521.725801,60.4604492 C521.725801,65.2485142 520.81374,69.78384 518.990792,74.0666697 C517.168728,78.3474226 514.687509,82.0789182 511.548354,85.2619784 C508.408227,88.4460223 504.708514,90.9609285 500.448398,92.805515 C496.186183,94.6510099 491.682361,95.5742187 486.936738,95.5742188 C480.607684,95.5742188 474.806405,93.9690495 469.532346,90.7606641 C464.266143,87.557057 460.053048,83.2893493 456.893311,77.9572938 C453.73004,72.6192734 452.147676,66.7871264 452.147676,60.4604492 C452.147676,54.0901259 453.719401,48.2474154 456.860523,42.9316705 C459.998526,37.621204 464.200829,33.3640679 469.467405,30.1602343 C474.741166,26.9520298 480.56404,25.3466797 486.936738,25.3466797 Z M486.936738,34.3344727 C482.095027,34.3344727 477.719625,35.478857 473.811909,37.7725165 C469.904055,40.0662569 466.803474,43.1884746 464.509758,47.1387631 C462.215113,51.0906508 461.070527,55.5317241 461.070527,60.4604492 C461.070527,65.3040603 462.205011,69.7023065 464.478295,73.6539972 C466.751194,77.6050165 469.841889,80.7488637 473.750429,83.0854909 C477.657483,85.4212301 482.053431,86.5864258 486.936738,86.5864258 C491.734955,86.5864258 496.08806,85.4313069 499.994889,83.1169354 C503.90364,80.8014255 507.005105,77.6786372 509.299367,73.7486518 C511.593733,69.818488 512.738008,65.3885401 512.738008,60.4604492 C512.738008,55.5310822 511.603935,51.0894237 509.33024,47.1370184 C507.058169,43.1874378 503.96871,40.0658393 500.061568,37.7725165 C496.153851,35.478857 491.778449,34.3344727 486.936738,34.3344727 Z" id="Shape" stroke="#536983" fill="#293462" class="svg-elem-9"></path>
            <path d="M537.308652,29.59375 L537.308652,60.6733418 L537.373595,62.7514956 C537.372795,66.2015573 537.903603,69.4281299 538.968377,72.4307912 C540.029505,75.4231724 541.51405,78.0448464 543.42018,80.2899018 C545.406015,82.5714995 547.654826,84.2949805 550.169058,85.4570207 C552.676582,86.6159604 555.236594,87.1967773 557.849668,87.1967773 C560.462742,87.1967773 563.022754,86.6159604 565.530278,85.4570207 C568.04451,84.2949805 570.293321,82.5714995 572.279322,80.2894161 C576.272148,75.4420266 578.26231,69.594673 578.2608,62.7514942 L578.325742,60.6733418 L578.325742,29.59375 L587.248594,29.59375 L587.248594,64.1368203 C586.767878,72.8777732 584.039728,80.1871574 579.075488,86.0739308 C576.167738,89.4663058 572.884124,91.9974035 569.227729,93.6714157 C565.567345,95.3472541 561.774571,96.1845703 557.849668,96.1845703 C553.881045,96.1845703 550.066663,95.3470769 546.406666,93.6714157 C542.750271,91.9974035 539.466657,89.4663058 536.555124,86.0694647 C531.5942,80.1426971 528.866469,72.7904388 528.385801,64.0068691 L528.385801,29.59375 L537.308652,29.59375 Z" id="Path" stroke="#536983" fill="#293462" class="svg-elem-10"></path>
            <path d="M623.242578,25.3466797 C627.170062,25.3466797 630.987581,26.2391139 634.694591,28.0264223 C638.394818,29.8104603 641.678251,32.4626217 644.546012,35.9922461 C649.501434,42.2632675 652.226124,49.9801905 652.706445,59.1485026 L652.706445,95.2495117 L643.718652,95.2495117 L643.718652,60.4604492 C643.718652,56.7505654 643.176034,53.2749751 642.088618,50.0340492 C641.004273,46.8022759 639.495953,43.9736817 637.561038,41.5497223 C635.64044,39.1436982 633.425764,37.3265608 630.913896,36.1022888 C628.409999,34.881902 625.874861,34.2695312 623.30752,34.2695312 C620.697539,34.2695312 618.140692,34.8816127 615.636202,36.1022888 C613.122436,37.3274854 610.874718,39.1674923 608.89168,41.6146234 C605.35977,46.0401482 603.344792,51.5946269 602.831445,58.2715777 L602.831445,95.2495117 L593.908594,95.2495117 L593.908594,28.59375 L602.831445,28.59375 L602.831445,34.9371782 C605.480098,31.9313558 608.467225,29.628747 611.790565,28.0264223 C615.497575,26.2391139 619.315094,25.3466797 623.242578,25.3466797 Z" id="Path" stroke="#536983" fill="#293462" class="svg-elem-11"></path>
            <path d="M729.009512,-0.5 L729.009512,95.2495117 L720.08666,95.2495117 L720.08666,84.9916891 C718.754217,86.1873198 716.119891,88.0405775 712.150135,90.5298097 C706.789098,93.8914434 700.791274,95.5742188 694.155508,95.5742188 C687.740107,95.5742188 681.896526,93.9907921 676.623846,90.827184 C671.355532,87.6661957 667.162691,83.4187369 664.045589,78.0845422 C660.927058,72.747901 659.366445,66.8734513 659.366445,60.4604492 C659.366445,54.0038214 660.927224,48.1077716 664.045589,42.7714148 C667.163009,37.4366751 671.35632,33.1998082 676.625163,30.0604562 C681.897447,26.9190536 687.740581,25.3466797 694.155508,25.3466797 C700.790822,25.3466797 706.788221,27.0184067 712.148886,30.357837 C716.11952,32.8313469 718.754131,34.6748697 720.08666,35.8664733 L720.08666,-0.5 L729.009512,-0.5 Z M694.155508,34.3344727 C689.358562,34.3344727 685.017171,35.4997908 681.132582,37.8347897 C677.242961,40.1728134 674.129436,43.3187692 671.791445,47.2720987 C669.455345,51.2222327 668.289297,55.6187253 668.289297,60.4604492 C668.289297,65.259312 669.455563,69.6340944 671.791445,73.5838584 C674.129854,77.5378956 677.243991,80.6949796 681.134296,83.054673 C685.018374,85.410589 689.359185,86.5864258 694.155508,86.5864258 C698.908984,86.5864258 703.22808,85.4103584 707.111778,83.054673 C711.002083,80.6949796 714.11622,77.5378956 716.454629,73.5838584 C718.790511,69.6340944 719.956777,65.259312 719.956777,60.4604492 C719.956777,55.6181014 718.801252,51.2210276 716.486087,47.2703784 C714.169883,43.3179572 711.056942,40.1728771 707.146993,37.8354075 C703.241056,35.5003366 698.910246,34.3344727 694.155508,34.3344727 Z" id="Shape" stroke="#536983" fill="#293462" class="svg-elem-12"></path>
        </g>
    </g>
</svg>